<svg fill="none" height="32" viewBox="0 0 32 32" width="32" xmlns="http://www.w3.org/2000/svg"><path d="m5.04656 22h13.96734l.9861 3-.9861 3h-13.96734l-1.04656-3z" fill="#f4f4f4"/><path d="m4 26h17l-2 4h-15z" fill="#d3d3d3"/><path d="m19 26 5.5-2 5.5 2v2.5c0 .8284-.6716 1.5-1.5 1.5h-9.5z" fill="#e19747"/><path d="m19 22h9.5c.8284 0 1.5.6716 1.5 1.5v2.5h-11z" fill="#f9c23c"/><g fill="#feefc2"><path d="m21.5781 23.99c0 .2761-.2238.5-.5.5-.2761 0-.5-.2239-.5-.5 0-.2762.2239-.5.5-.5.2762 0 .5.2238.5.5z"/><path d="m23.7482 26.05c0 .2762-.2239.5-.5.5-.2762 0-.5-.2238-.5-.5 0-.2761.2238-.5.5-.5.2761 0 .5.2239.5.5z"/><path d="m25.4082 24.49c.2761 0 .5-.2239.5-.5 0-.2762-.2239-.5-.5-.5s-.5.2238-.5.5c0 .2761.2239.5.5.5z"/><path d="m25.9082 28.1c0 .2761-.2239.5-.5.5s-.5-.2239-.5-.5c0-.2762.2239-.5.5-.5s.5.2238.5.5z"/><path d="m21.0781 28.6c.2762 0 .5-.2239.5-.5 0-.2762-.2238-.5-.5-.5-.2761 0-.5.2238-.5.5 0 .2761.2239.5.5.5z"/><path d="m28.0681 26.05c0 .2762-.2238.5-.5.5-.2761 0-.5-.2238-.5-.5 0-.2761.2239-.5.5-.5.2762 0 .5.2239.5.5z"/></g><path d="m2 23.5c0-.8284.67157-1.5 1.5-1.5h2.5l-.75 1c-.44444.5926-.44444 1.4074 0 2s.44444 1.4074 0 2-.44444 1.4074 0 2l.75 1h-2.5c-.82843 0-1.5-.6716-1.5-1.5z" fill="#636363"/><path d="m11.4747 7.25562c-.3918.7178-.8175 1.49796-.5561 3.19748.0553.3059 0 .5469-.1738.5469-.0553 0-.1501-.0185-.2845-.1576-2.27212-2.49342-1.43558-3.80516-.53867-5.21156.45357-.7112.92257-1.44661 1.01277-2.37128 0-.13905.1027-.25956.2291-.25956.1027 0 .166.08343.245.25956.9828 2.31645.5505 3.1086.0662 3.99606z" fill="#9b9b9b"/><path d="m6.94931 14.4473c-.78347 1.2562-1.63499 2.6215-1.11211 5.5956.11061.5353 0 .9571-.34765.9571-.11062 0-.30024-.0324-.56888-.2758-4.544302-4.3635-2.87122-6.659-1.07742-9.1202.90712-1.2446 1.84511-2.5316 2.02555-4.14977 0-.24334.20543-.45423.45826-.45423.20543 0 .33185.146.48987.45423 1.96564 4.05377 1.10103 5.44007.13238 6.99307z" fill="#9b9b9b"/></svg>